<?xml version="1.0" encoding="UTF-8" standalone="no"?>
<!-- Generator: Adobe Illustrator 15.0.0, SVG Export Plug-In . SVG Version: 6.00 Build 0)  -->

<svg
   version="1.1"
   id="レイヤー_1"
   x="0px"
   y="0px"
   width="141.73199"
   height="141.731"
   viewBox="0 0 141.732 141.731"
   xml:space="preserve"
   xmlns="http://www.w3.org/2000/svg"
   xmlns:svg="http://www.w3.org/2000/svg"><defs
   id="defs1" />
<path
   style="clip-rule:evenodd;fill:#ffffff;fill-opacity:1;fill-rule:evenodd"
   d="m 25.648,22.847 c -5.968,0 -10.804,4.778 -10.804,10.671 0,5.893 4.836,10.671 10.804,10.671 h 90.437 c 5.968,0 10.804,-4.778 10.804,-10.671 0,-5.893 -4.836,-10.671 -10.804,-10.671 z m 0,37.348 c -5.968,0 -10.804,4.778 -10.804,10.671 0,5.894 4.836,10.671 10.804,10.671 h 90.437 c 5.968,0 10.804,-4.777 10.804,-10.671 0,-5.893 -4.836,-10.671 -10.804,-10.671 z m 0,37.349 c -5.968,0 -10.804,4.777 -10.804,10.671 0,5.893 4.836,10.671 10.804,10.671 h 90.437 c 5.968,0 10.804,-4.778 10.804,-10.671 0,-5.894 -4.836,-10.671 -10.804,-10.671 z"
   id="path1" />
</svg>
