<?xml version="1.0" encoding="UTF-8" standalone="no"?>
<svg
   viewBox="0 0 1066.6667 1066.6667"
   height="1066.6667"
   width="1066.6667"
   xml:space="preserve"
   id="svg2"
   version="1.1"
   xmlns="http://www.w3.org/2000/svg"
   xmlns:svg="http://www.w3.org/2000/svg"
   xmlns:rdf="http://www.w3.org/1999/02/22-rdf-syntax-ns#"
   xmlns:cc="http://creativecommons.org/ns#"
   xmlns:dc="http://purl.org/dc/elements/1.1/"><metadata
     id="metadata8"><rdf:RDF><cc:Work
         rdf:about=""><dc:format>image/svg+xml</dc:format><dc:type
           rdf:resource="http://purl.org/dc/dcmitype/StillImage" /></cc:Work></rdf:RDF></metadata><defs
     id="defs6"><clipPath
       id="clipPath18"
       clipPathUnits="userSpaceOnUse"><path
         id="path16"
         d="M 0,800 H 800 V 0 H 0 Z" /></clipPath></defs><g
     transform="matrix(1.3333333,0,0,-1.3333333,0,1066.6667)"
     id="g10"
     style="fill:#ffffff;fill-opacity:1;stroke-width:0.99975;stroke-dasharray:none"><g
       id="g12"
       style="fill:#ffffff;fill-opacity:1;stroke-width:0.99975;stroke-dasharray:none"><g
         clip-path="url(#clipPath18)"
         id="g14"
         style="fill:#ffffff;fill-opacity:1;stroke-width:0.99975;stroke-dasharray:none"><g
           transform="translate(256.6685,115)"
           id="g20"
           style="fill:#ffffff;fill-opacity:1;stroke-width:0.99975;stroke-dasharray:none"><path
             id="path22"
             style="fill:#ffffff;fill-opacity:1;fill-rule:nonzero;stroke:none;stroke-width:0.99975;stroke-dasharray:none"
             d="m 0,0 c -33.688,0 -65.292,13.051 -88.989,36.747 l -15.933,15.934 c -23.696,23.697 -36.746,55.3 -36.746,88.988 0,33.688 13.05,65.291 36.746,88.987 L 24.98,360.559 c 49.069,49.068 128.909,49.068 177.977,0 l 34.58,-34.58 -46.076,-46.076 -34.58,34.58 c -23.662,23.663 -62.163,23.663 -85.825,0 L -58.847,184.581 c -11.389,-11.389 -17.661,-26.629 -17.661,-42.912 0,-16.283 6.272,-31.524 17.661,-42.913 L -42.914,82.822 C -31.524,71.433 -16.284,65.16 0,65.16 c 16.283,0 31.523,6.273 42.913,17.662 L 68.78,108.688 114.854,62.613 88.987,36.747 C 65.292,13.051 33.688,0 0,0" /></g><g
           transform="translate(429.3633,287.6943)"
           id="g24"
           style="fill:#ffffff;fill-opacity:1;stroke-width:0.99975;stroke-dasharray:none"><path
             id="path26"
             style="fill:#ffffff;fill-opacity:1;fill-rule:nonzero;stroke:none;stroke-width:0.99975;stroke-dasharray:none"
             d="m 0,0 c -33.689,0 -65.292,13.051 -88.989,36.748 l -34.58,34.578 46.075,46.076 34.58,-34.579 C -31.524,71.433 -16.284,65.16 0,65.16 c 16.282,0 31.523,6.273 42.912,17.662 l 129.902,129.902 c 11.39,11.39 17.663,26.63 17.663,42.913 0,16.283 -6.273,31.523 -17.663,42.913 l -15.933,15.933 c -11.39,11.39 -26.63,17.663 -42.913,17.663 -16.283,0 -31.524,-6.272 -42.912,-17.662 L 45.188,288.616 -0.888,334.691 24.98,360.558 c 23.697,23.697 55.299,36.748 88.988,36.748 33.687,0 65.292,-13.051 88.988,-36.748 l 15.934,-15.933 c 23.696,-23.696 36.747,-55.3 36.747,-88.988 0,-33.688 -13.051,-65.292 -36.747,-88.988 L 88.987,36.748 C 65.291,13.051 33.688,0 0,0" /></g></g></g></g></svg>
