<?xml version="1.0" encoding="UTF-8" standalone="no"?>
<svg
   viewBox="0 0 1066.6667 1066.6667"
   height="1066.6667"
   width="1066.6667"
   xml:space="preserve"
   id="svg2"
   version="1.1"
   xmlns="http://www.w3.org/2000/svg"
   xmlns:svg="http://www.w3.org/2000/svg"
   xmlns:rdf="http://www.w3.org/1999/02/22-rdf-syntax-ns#"
   xmlns:cc="http://creativecommons.org/ns#"
   xmlns:dc="http://purl.org/dc/elements/1.1/"><metadata
     id="metadata8"><rdf:RDF><cc:Work
         rdf:about=""><dc:format>image/svg+xml</dc:format><dc:type
           rdf:resource="http://purl.org/dc/dcmitype/StillImage" /></cc:Work></rdf:RDF></metadata><defs
     id="defs6"><clipPath
       id="clipPath18"
       clipPathUnits="userSpaceOnUse"><path
         id="path16"
         d="M 0,800 H 800 V 0 H 0 Z" /></clipPath></defs><g
     transform="matrix(1.3333333,0,0,-1.3333333,0,1066.6667)"
     id="g10"
     style="fill:#ffffff;fill-opacity:1"><g
       id="g12"
       style="fill:#ffffff;fill-opacity:1"><g
         clip-path="url(#clipPath18)"
         id="g14"
         style="fill:#ffffff;fill-opacity:1"><path
           id="path20"
           style="fill:#ffffff;fill-opacity:1;fill-rule:nonzero;stroke:none"
           d="M 525.706,205.397 H 274.293 V 611.851 H 525.706 Z M 434.449,156.45 H 365.55 c -5.743,0 -10.399,4.656 -10.399,10.4 0,5.743 4.656,10.399 10.399,10.399 h 68.899 c 5.743,0 10.4,-4.656 10.4,-10.399 0,-5.744 -4.657,-10.4 -10.4,-10.4 M 400,651.843 c 5.458,0 9.883,-4.425 9.883,-9.883 0,-5.458 -4.425,-9.883 -9.883,-9.883 -5.458,0 -9.883,4.425 -9.883,9.883 0,5.458 4.425,9.883 9.883,9.883 m 107.781,18.556 H 292.218 c -24.848,0 -45.064,-20.215 -45.064,-45.065 V 174.665 c 0,-24.849 20.216,-45.064 45.064,-45.064 h 215.563 c 24.85,0 45.066,20.215 45.066,45.064 v 450.669 c 0,24.85 -20.216,45.065 -45.066,45.065" /><g
           transform="translate(400,386.2109)"
           id="g22"
           style="fill:#ffffff;fill-opacity:1"><path
             id="path24"
             style="fill:#ffffff;fill-opacity:1;fill-rule:nonzero;stroke:none"
             d="m 0,0 c -12.379,0 -22.414,10.035 -22.414,22.414 0,12.378 10.035,22.413 22.414,22.413 12.379,0 22.413,-10.035 22.413,-22.413 C 22.413,10.035 12.379,0 0,0 m 83.102,39.304 -20.364,2.793 c -1.172,3.739 -2.679,7.327 -4.468,10.746 l 12.435,16.389 c 1.59,2.095 1.369,5.331 -0.491,7.192 L 54.01,92.628 c -1.861,1.86 -5.096,2.081 -7.192,0.491 L 30.429,80.683 c -3.418,1.789 -7.007,3.297 -10.746,4.469 l -2.792,20.363 c -0.358,2.606 -2.803,4.738 -5.433,4.738 h -22.916 c -2.631,0 -5.075,-2.132 -5.433,-4.738 l -2.793,-20.363 c -3.739,-1.172 -7.327,-2.68 -10.746,-4.469 l -16.388,12.436 c -2.096,1.59 -5.332,1.369 -7.192,-0.491 L -70.215,76.424 c -1.86,-1.861 -2.08,-5.097 -0.491,-7.192 L -58.27,52.843 c -1.789,-3.419 -3.297,-7.007 -4.469,-10.746 l -20.363,-2.793 c -2.606,-0.357 -4.738,-2.802 -4.738,-5.432 V 10.955 c 0,-2.63 2.132,-5.075 4.738,-5.433 L -62.739,2.73 c 1.172,-3.739 2.68,-7.328 4.469,-10.746 l -12.436,-16.389 c -1.589,-2.095 -1.369,-5.331 0.491,-7.192 l 16.205,-16.204 c 1.86,-1.86 5.096,-2.081 7.192,-0.491 l 16.388,12.437 c 3.419,-1.79 7.007,-3.298 10.746,-4.47 l 2.793,-20.363 c 0.358,-2.606 2.802,-4.739 5.433,-4.739 h 22.916 c 2.63,0 5.075,2.133 5.433,4.739 l 2.792,20.363 c 3.739,1.172 7.328,2.68 10.746,4.47 l 16.389,-12.437 c 2.096,-1.59 5.331,-1.369 7.192,0.491 l 16.204,16.204 c 1.86,1.861 2.081,5.097 0.491,7.192 L 58.27,-8.016 c 1.789,3.418 3.296,7.007 4.468,10.746 l 20.364,2.792 c 2.605,0.358 4.738,2.803 4.738,5.433 v 22.917 c 0,2.63 -2.133,5.075 -4.738,5.432" /></g></g></g></g></svg>
