<?xml version="1.0" encoding="UTF-8" standalone="no"?>
<svg
   viewBox="0 0 1066.6667 1066.6667"
   height="1066.6667"
   width="1066.6667"
   xml:space="preserve"
   id="svg2"
   version="1.1"
   xmlns="http://www.w3.org/2000/svg"
   xmlns:svg="http://www.w3.org/2000/svg"
   xmlns:rdf="http://www.w3.org/1999/02/22-rdf-syntax-ns#"
   xmlns:cc="http://creativecommons.org/ns#"
   xmlns:dc="http://purl.org/dc/elements/1.1/"><metadata
     id="metadata8"><rdf:RDF><cc:Work
         rdf:about=""><dc:format>image/svg+xml</dc:format><dc:type
           rdf:resource="http://purl.org/dc/dcmitype/StillImage" /></cc:Work></rdf:RDF></metadata><defs
     id="defs6"><clipPath
       id="clipPath18"
       clipPathUnits="userSpaceOnUse"><path
         id="path16"
         d="M 0,800 H 800 V 0 H 0 Z" /></clipPath></defs><g
     transform="matrix(1.3333333,0,0,-1.3333333,0,1066.6667)"
     id="g10"
     style="fill:#000000;fill-opacity:1"><g
       id="g12"
       style="fill:#000000;fill-opacity:1"><g
         clip-path="url(#clipPath18)"
         id="g14"
         style="fill:#000000;fill-opacity:1"><g
           transform="translate(364.79,119.8468)"
           id="g20"
           style="fill:#000000;fill-opacity:1"><path
             id="path22"
             style="fill:#000000;fill-opacity:1;fill-rule:nonzero;stroke:none"
             d="m 0,0 c -79.605,0 -156.042,29.509 -215.232,83.09 -2.712,2.457 -3.496,6.399 -1.929,9.704 1.388,2.927 4.328,4.744 7.494,4.744 0.411,0 0.824,-0.03 1.239,-0.093 18.114,-2.728 36.6,-4.112 54.947,-4.112 201.853,0 366.073,164.221 366.073,366.074 0,30.65 -3.799,61.118 -11.296,90.556 -0.903,3.543 0.62,7.259 3.75,9.148 1.328,0.802 2.811,1.195 4.287,1.195 2.004,0 3.993,-0.724 5.556,-2.132 C 282.957,496.846 320.444,412.418 320.444,320.444 320.444,143.751 176.693,0 0,0" /></g><g
           transform="translate(176.0863,370.4525)"
           id="g24"
           style="fill:#000000;fill-opacity:1"><path
             id="path26"
             style="fill:#000000;fill-opacity:1;fill-rule:nonzero;stroke:none"
             d="m 0,0 c -0.703,0 -1.41,0.138 -2.081,0.42 -1.884,0.793 -3.155,2.586 -3.278,4.626 l -3.506,58.113 -49.858,30.056 c -1.751,1.056 -2.751,3.013 -2.578,5.05 0.171,2.036 1.484,3.798 3.386,4.546 l 54.184,21.292 13.18,56.707 c 0.462,1.99 2.015,3.546 4.005,4.012 0.406,0.095 0.817,0.141 1.224,0.141 1.584,0 3.113,-0.701 4.146,-1.957 l 36.993,-44.953 58.003,4.99 c 0.155,0.014 0.309,0.02 0.461,0.02 1.867,0 3.615,-0.973 4.593,-2.589 1.058,-1.748 1.032,-3.946 -0.067,-5.668 L 87.486,85.731 110.156,32.108 c 0.796,-1.882 0.453,-4.053 -0.882,-5.6 -1.034,-1.197 -2.526,-1.86 -4.064,-1.86 -0.449,0 -0.901,0.056 -1.348,0.172 L 47.51,39.443 3.517,1.312 C 2.523,0.45 1.27,0 0,0" /></g><g
           transform="translate(356.5775,496.1093)"
           id="g28"
           style="fill:#000000;fill-opacity:1"><path
             id="path30"
             style="fill:#000000;fill-opacity:1;fill-rule:nonzero;stroke:none"
             d="M 0,0 C -0.308,0.273 -0.563,0.608 -0.747,0.992 -1.264,2.07 -1.124,3.348 -0.386,4.289 L 20.64,31.085 10.487,63.596 c -0.356,1.141 -0.034,2.386 0.832,3.21 0.865,0.825 2.124,1.087 3.247,0.675 L 46.547,55.765 74.33,75.467 c 0.975,0.692 2.259,0.77 3.311,0.201 0.215,-0.116 0.412,-0.255 0.591,-0.413 0.693,-0.615 1.09,-1.516 1.054,-2.467 L 78.025,38.752 105.349,18.418 c 0.073,-0.054 0.143,-0.111 0.209,-0.17 0.817,-0.725 1.204,-1.83 1.005,-2.916 -0.215,-1.176 -1.08,-2.128 -2.23,-2.455 L 71.573,3.558 60.677,-28.713 c -0.382,-1.132 -1.375,-1.95 -2.56,-2.108 -0.917,-0.123 -1.827,0.166 -2.5,0.764 -0.197,0.174 -0.373,0.374 -0.524,0.598 L 36.107,-1.181 2.049,-0.791 C 1.279,-0.782 0.556,-0.493 0,0" /></g></g></g></g></svg>
