<?xml version="1.0" encoding="UTF-8" standalone="no"?>
<svg
   viewBox="0 0 1066.6667 1066.6667"
   height="1066.6667"
   width="1066.6667"
   xml:space="preserve"
   id="svg2"
   version="1.1"
   xmlns="http://www.w3.org/2000/svg"
   xmlns:svg="http://www.w3.org/2000/svg"
   xmlns:rdf="http://www.w3.org/1999/02/22-rdf-syntax-ns#"
   xmlns:cc="http://creativecommons.org/ns#"
   xmlns:dc="http://purl.org/dc/elements/1.1/"><metadata
     id="metadata8"><rdf:RDF><cc:Work
         rdf:about=""><dc:format>image/svg+xml</dc:format><dc:type
           rdf:resource="http://purl.org/dc/dcmitype/StillImage" /></cc:Work></rdf:RDF></metadata><defs
     id="defs6"><clipPath
       id="clipPath18"
       clipPathUnits="userSpaceOnUse"><path
         id="path16"
         d="M 0,800 H 800 V 0 H 0 Z" /></clipPath></defs><g
     transform="matrix(1.3333333,0,0,-1.3333333,0,1066.6667)"
     id="g10"
     style="fill:#000000;fill-opacity:1"><g
       id="g12"
       style="fill:#000000;fill-opacity:1"><g
         clip-path="url(#clipPath18)"
         id="g14"
         style="fill:#000000;fill-opacity:1"><g
           transform="translate(543.5737,400)"
           id="g20"
           style="fill:#000000;fill-opacity:1"><path
             id="path22"
             style="fill:#000000;fill-opacity:1;fill-rule:nonzero;stroke:none"
             d="m 0,0 c 0,-79.294 -64.28,-143.574 -143.574,-143.574 -79.293,0 -143.573,64.28 -143.573,143.574 0,79.294 64.28,143.574 143.573,143.574 C -64.28,143.574 0,79.294 0,0" /></g><g
           transform="translate(418,581)"
           id="g24"
           style="fill:#000000;fill-opacity:1"><path
             id="path26"
             style="fill:#000000;fill-opacity:1;fill-rule:nonzero;stroke:none"
             d="m 0,0 c 0,-3.3 -2.7,-6 -6,-6 h -24 c -3.3,0 -6,2.7 -6,6 v 98 c 0,3.3 2.7,6 6,6 h 24 c 3.3,0 6,-2.7 6,-6 z" /></g><g
           transform="translate(284.7416,540.7142)"
           id="g28"
           style="fill:#000000;fill-opacity:1"><path
             id="path30"
             style="fill:#000000;fill-opacity:1;fill-rule:nonzero;stroke:none"
             d="m 0,0 c 2.333,-2.333 2.333,-6.152 0,-8.485 l -16.971,-16.971 c -2.333,-2.333 -6.151,-2.333 -8.485,0 l -69.296,69.297 c -2.334,2.333 -2.334,6.151 0,8.485 l 16.97,16.971 c 2.334,2.333 6.152,2.333 8.486,0 z" /></g><g
           transform="translate(219,418)"
           id="g32"
           style="fill:#000000;fill-opacity:1"><path
             id="path34"
             style="fill:#000000;fill-opacity:1;fill-rule:nonzero;stroke:none"
             d="m 0,0 c 3.3,0 6,-2.7 6,-6 v -24 c 0,-3.3 -2.7,-6 -6,-6 h -98 c -3.3,0 -6,2.7 -6,6 v 24 c 0,3.3 2.7,6 6,6 z" /></g><g
           transform="translate(259.2857,284.7416)"
           id="g36"
           style="fill:#000000;fill-opacity:1"><path
             id="path38"
             style="fill:#000000;fill-opacity:1;fill-rule:nonzero;stroke:none"
             d="m 0,0 c 2.333,2.333 6.152,2.333 8.485,0 l 16.971,-16.971 c 2.333,-2.333 2.333,-6.151 0,-8.485 l -69.297,-69.296 c -2.333,-2.334 -6.151,-2.334 -8.485,0 l -16.97,16.97 c -2.334,2.334 -2.334,6.152 0,8.486 z" /></g><g
           transform="translate(382,219)"
           id="g40"
           style="fill:#000000;fill-opacity:1"><path
             id="path42"
             style="fill:#000000;fill-opacity:1;fill-rule:nonzero;stroke:none"
             d="m 0,0 c 0,3.3 2.7,6 6,6 h 24 c 3.3,0 6,-2.7 6,-6 v -98 c 0,-3.3 -2.7,-6 -6,-6 H 6 c -3.3,0 -6,2.7 -6,6 z" /></g><g
           transform="translate(515.2584,259.2857)"
           id="g44"
           style="fill:#000000;fill-opacity:1"><path
             id="path46"
             style="fill:#000000;fill-opacity:1;fill-rule:nonzero;stroke:none"
             d="m 0,0 c -2.333,2.333 -2.333,6.152 0,8.485 l 16.971,16.971 c 2.333,2.333 6.151,2.333 8.485,0 l 69.296,-69.297 c 2.334,-2.333 2.334,-6.151 0,-8.485 l -16.97,-16.97 c -2.334,-2.334 -6.152,-2.334 -8.486,0 z" /></g><g
           transform="translate(581,382)"
           id="g48"
           style="fill:#000000;fill-opacity:1"><path
             id="path50"
             style="fill:#000000;fill-opacity:1;fill-rule:nonzero;stroke:none"
             d="m 0,0 c -3.3,0 -6,2.7 -6,6 v 24 c 0,3.3 2.7,6 6,6 h 98 c 3.3,0 6,-2.7 6,-6 V 6 c 0,-3.3 -2.7,-6 -6,-6 z" /></g><g
           transform="translate(540.7142,515.2584)"
           id="g52"
           style="fill:#000000;fill-opacity:1"><path
             id="path54"
             style="fill:#000000;fill-opacity:1;fill-rule:nonzero;stroke:none"
             d="m 0,0 c -2.333,-2.333 -6.152,-2.333 -8.485,0 l -16.971,16.971 c -2.333,2.333 -2.333,6.151 0,8.485 l 69.297,69.296 c 2.333,2.334 6.151,2.334 8.485,0 l 16.971,-16.97 c 2.333,-2.334 2.333,-6.152 0,-8.486 z" /></g></g></g></g></svg>
